<svg width="29" height="30" viewBox="0 0 29 30" fill="none" xmlns="http://www.w3.org/2000/svg">
<path d="M19.9103 3.67249L19.9123 3.67348L25.2284 6.24999L26.5276 12.0715L26.5281 12.0737L27.8534 17.8912L24.1662 22.5498L24.1648 22.5515L20.501 27.2232L14.6101 27.2099L14.6078 27.2099L8.71682 27.2232L5.05301 22.5515L5.05162 22.5498L1.36444 17.8912L2.68977 12.0737L2.69026 12.0715L3.98946 6.24999L9.30551 3.67349L9.30756 3.67249L14.6089 1.07358L19.9103 3.67249Z" stroke="#47494B" stroke-width="1.01097"/>
<path d="M12.5781 17.0969C12.0475 17.7349 11.346 18.054 10.4736 18.054C9.60124 18.054 8.89974 17.7349 8.36914 17.0969C7.83854 16.4556 7.57324 15.5588 7.57324 14.4065C7.57324 13.2509 7.83854 12.3541 8.36914 11.7161C8.89974 11.0748 9.60124 10.7542 10.4736 10.7542C11.346 10.7542 12.0475 11.0748 12.5781 11.7161C13.1087 12.3541 13.374 13.2509 13.374 14.4065C13.374 15.5588 13.1087 16.4556 12.5781 17.0969ZM11.9092 12.1995C11.5381 11.7014 11.0596 11.4524 10.4736 11.4524C9.8877 11.4524 9.40755 11.7014 9.0332 12.1995C8.65885 12.6943 8.47168 13.4283 8.47168 14.4016C8.47168 15.3749 8.65885 16.1106 9.0332 16.6086C9.40755 17.1034 9.8877 17.3508 10.4736 17.3508C11.0596 17.3508 11.5381 17.1034 11.9092 16.6086C12.2835 16.1106 12.4707 15.3749 12.4707 14.4016C12.4707 13.4283 12.2835 12.6943 11.9092 12.1995ZM14.2383 12.6829C14.3652 12.0839 14.6696 11.6135 15.1514 11.2717C15.6364 10.9267 16.2695 10.7542 17.0508 10.7542C17.8353 10.7542 18.4538 10.9364 18.9062 11.301C19.362 11.6624 19.5898 12.1799 19.5898 12.8538C19.5898 13.3062 19.4434 13.7099 19.1504 14.0647C18.8607 14.4163 18.5091 14.706 18.0957 14.9338L16.8457 15.5881C15.8398 16.0927 15.3206 16.6314 15.2881 17.2043H19.5264C19.5915 17.2043 19.6257 17.2369 19.6289 17.302V17.8049C19.6289 17.87 19.5947 17.9026 19.5264 17.9026H14.4873C14.4222 17.9026 14.3896 17.87 14.3896 17.8049V17.3508C14.3896 17.0058 14.4678 16.69 14.624 16.4036C14.7803 16.1171 14.9854 15.8746 15.2393 15.676C15.4932 15.4742 15.7731 15.2854 16.0791 15.1096L16.9971 14.6018C17.3031 14.4423 17.583 14.2795 17.8369 14.1135C18.0908 13.9475 18.2959 13.7522 18.4521 13.5276C18.6084 13.303 18.6865 13.0621 18.6865 12.8049C18.6865 12.3655 18.5368 12.0302 18.2373 11.7991C17.9378 11.568 17.5326 11.4524 17.0215 11.4524C16.5104 11.4524 16.0921 11.5647 15.7666 11.7893C15.4411 12.0107 15.2148 12.315 15.0879 12.7024C15.0684 12.7675 15.0277 12.8017 14.9658 12.8049H14.3359C14.2578 12.8049 14.2253 12.7642 14.2383 12.6829ZM20.8252 17.1018C20.8252 16.9683 20.8919 16.9016 21.0254 16.9016H21.6748C21.7497 16.9016 21.8018 16.9179 21.8311 16.9504C21.8604 16.9797 21.875 17.0302 21.875 17.1018V17.7512C21.875 17.8261 21.8604 17.8782 21.8311 17.9075C21.8018 17.9368 21.7497 17.9514 21.6748 17.9514H21.0254C20.9538 17.9514 20.9017 17.9368 20.8691 17.9075C20.8398 17.8782 20.8252 17.8261 20.8252 17.7512V17.1018Z" fill="#4B6CC1"/>
</svg>
