<svg width="29" height="30" viewBox="0 0 29 30" fill="none" xmlns="http://www.w3.org/2000/svg">
<path d="M19.8819 3.67249L19.884 3.67348L25.2 6.24999L26.4992 12.0715L26.4997 12.0737L27.8251 17.8912L24.1379 22.5498L24.1365 22.5515L20.4727 27.2232L14.5817 27.2099L14.5794 27.2099L8.6885 27.2232L5.02469 22.5515L5.0233 22.5498L1.33612 17.8912L2.66145 12.0737L2.66194 12.0715L3.96114 6.24999L9.27719 3.67349L9.27924 3.67249L14.5806 1.07358L19.8819 3.67249Z" stroke="#47494B" stroke-width="1.01097"/>
<path d="M12.5688 17.0969C12.0382 17.7349 11.3368 18.054 10.4644 18.054C9.59196 18.054 8.89046 17.7349 8.35986 17.0969C7.82926 16.4556 7.56396 15.5588 7.56396 14.4065C7.56396 13.2509 7.82926 12.3541 8.35986 11.7161C8.89046 11.0748 9.59196 10.7542 10.4644 10.7542C11.3368 10.7542 12.0382 11.0748 12.5688 11.7161C13.0994 12.3541 13.3647 13.2509 13.3647 14.4065C13.3647 15.5588 13.0994 16.4556 12.5688 17.0969ZM11.8999 12.1995C11.5288 11.7014 11.0503 11.4524 10.4644 11.4524C9.87842 11.4524 9.39827 11.7014 9.02393 12.1995C8.64958 12.6943 8.4624 13.4283 8.4624 14.4016C8.4624 15.3749 8.64958 16.1106 9.02393 16.6086C9.39827 17.1034 9.87842 17.3508 10.4644 17.3508C11.0503 17.3508 11.5288 17.1034 11.8999 16.6086C12.2743 16.1106 12.4614 15.3749 12.4614 14.4016C12.4614 13.4283 12.2743 12.6943 11.8999 12.1995ZM14.3267 16.1204C14.3136 16.039 14.3478 15.9999 14.4292 16.0032H15.0591C15.1177 16.0032 15.1584 16.0357 15.1812 16.1008C15.3081 16.4882 15.5343 16.7942 15.8599 17.0188C16.1854 17.2402 16.6086 17.3508 17.1294 17.3508C17.6502 17.3508 18.0653 17.2402 18.3745 17.0188C18.6838 16.7942 18.8384 16.4703 18.8384 16.0471C18.8384 15.6239 18.6919 15.2952 18.3989 15.0608C18.106 14.8232 17.686 14.7043 17.1392 14.7043H16.2407C16.1756 14.7043 16.1414 14.6702 16.1382 14.6018V14.1038C16.1382 14.0387 16.1724 14.0045 16.2407 14.0012H17.0903C17.5688 14.0012 17.9465 13.8922 18.2231 13.6741C18.4998 13.4527 18.6382 13.1386 18.6382 12.7317C18.6382 12.3248 18.4901 12.0107 18.1938 11.7893C17.8976 11.5647 17.5119 11.4524 17.0366 11.4524C16.5646 11.4524 16.1691 11.5663 15.8501 11.7942C15.5343 12.0188 15.3146 12.3215 15.1909 12.7024C15.1714 12.7675 15.1307 12.8017 15.0688 12.8049H14.439C14.3576 12.8049 14.3234 12.7642 14.3364 12.6829C14.4634 12.0904 14.7629 11.6217 15.2349 11.2766C15.7101 10.9283 16.3205 10.7542 17.0659 10.7542C17.8146 10.7542 18.4136 10.9316 18.8628 11.2864C19.312 11.6379 19.5366 12.1262 19.5366 12.7512C19.5366 13.1321 19.4325 13.4625 19.2241 13.7424C19.019 14.0224 18.7033 14.2096 18.2769 14.304C18.7554 14.3984 19.1183 14.6018 19.3657 14.9143C19.6131 15.2268 19.7368 15.606 19.7368 16.052C19.7368 16.6803 19.5057 17.1718 19.0435 17.5266C18.5812 17.8782 17.953 18.054 17.1587 18.054C16.3677 18.054 15.7297 17.8814 15.2446 17.5364C14.7596 17.1913 14.4536 16.7193 14.3267 16.1204ZM21.0405 17.1018C21.0405 16.9683 21.1073 16.9016 21.2407 16.9016H21.8901C21.965 16.9016 22.0171 16.9179 22.0464 16.9504C22.0757 16.9797 22.0903 17.0302 22.0903 17.1018V17.7512C22.0903 17.8261 22.0757 17.8782 22.0464 17.9075C22.0171 17.9368 21.965 17.9514 21.8901 17.9514H21.2407C21.1691 17.9514 21.117 17.9368 21.0845 17.9075C21.0552 17.8782 21.0405 17.8261 21.0405 17.7512V17.1018Z" fill="#4B6CC1"/>
</svg>
