<svg width="26" height="26" viewBox="0 0 26 26" fill="none" xmlns="http://www.w3.org/2000/svg">
<path d="M13.4372 0.877442C6.53014 0.874574 0.935791 6.6182 0.935791 13.7074C0.935791 19.3133 4.4354 24.0786 9.30916 25.8287C9.96551 25.9979 9.86496 25.5188 9.86496 25.1918V22.9683C6.07488 23.4245 5.92127 20.8482 5.66711 20.4178C5.1532 19.517 3.93825 19.2875 4.30134 18.8571C5.16437 18.401 6.04416 18.9719 7.0636 20.5182C7.80095 21.64 9.23933 21.4507 9.9683 21.2642C10.1275 20.59 10.4682 19.9875 10.9375 19.5199C7.01053 18.7969 5.37384 16.3353 5.37384 13.409C5.37384 11.9889 5.8291 10.6835 6.72285 9.6306C6.15309 7.89489 6.77592 6.40877 6.85971 6.18786C8.48243 6.03868 10.1694 7.38134 10.3007 7.48749C11.2224 7.23216 12.2753 7.09732 13.4539 7.09732C14.6382 7.09732 15.6939 7.2379 16.624 7.4961C16.9396 7.24937 18.5037 6.09606 20.0119 6.23663C20.0929 6.45754 20.7017 7.90923 20.1655 9.62199C21.0704 10.6778 21.5313 11.9946 21.5313 13.4176C21.5313 16.3497 19.8834 18.8141 15.9453 19.5256C16.2826 19.8663 16.5504 20.2727 16.7331 20.721C16.9158 21.1692 17.0098 21.6504 17.0094 22.1363V25.3639C17.0318 25.6221 17.0094 25.8774 17.4284 25.8774C22.3747 24.1647 25.9358 19.3649 25.9358 13.7102C25.9358 6.6182 20.3387 0.877442 13.4372 0.877442Z" fill="#191B1E"/>
</svg>
