<svg width="30" height="30" viewBox="0 0 30 30" fill="none" xmlns="http://www.w3.org/2000/svg">
<path d="M20.3763 3.67249L20.3784 3.67348L25.6944 6.24999L26.9936 12.0715L26.9941 12.0737L28.3194 17.8912L24.6323 22.5498L24.6309 22.5515L20.9671 27.2232L15.0761 27.2099L15.0738 27.2099L9.18288 27.2232L5.51908 22.5515L5.51768 22.5498L1.83051 17.8912L3.15584 12.0737L3.15632 12.0715L4.45553 6.24999L9.77158 3.67349L9.77362 3.67249L15.075 1.07358L20.3763 3.67249Z" stroke="#47494B" stroke-width="1.01097"/>
<path d="M14.5781 17.0969C14.0475 17.7349 13.346 18.054 12.4736 18.054C11.6012 18.054 10.8997 17.7349 10.3691 17.0969C9.83854 16.4556 9.57324 15.5588 9.57324 14.4065C9.57324 13.2509 9.83854 12.3541 10.3691 11.7161C10.8997 11.0748 11.6012 10.7542 12.4736 10.7542C13.346 10.7542 14.0475 11.0748 14.5781 11.7161C15.1087 12.3541 15.374 13.2509 15.374 14.4065C15.374 15.5588 15.1087 16.4556 14.5781 17.0969ZM13.9092 12.1995C13.5381 11.7014 13.0596 11.4524 12.4736 11.4524C11.8877 11.4524 11.4076 11.7014 11.0332 12.1995C10.6589 12.6943 10.4717 13.4283 10.4717 14.4016C10.4717 15.3749 10.6589 16.1106 11.0332 16.6086C11.4076 17.1034 11.8877 17.3508 12.4736 17.3508C13.0596 17.3508 13.5381 17.1034 13.9092 16.6086C14.2835 16.1106 14.4707 15.3749 14.4707 14.4016C14.4707 13.4283 14.2835 12.6943 13.9092 12.1995ZM16.1064 12.4924C16.0706 12.4403 16.0771 12.3931 16.126 12.3508L17.6152 11.2034C17.6283 11.1969 17.6641 11.1692 17.7227 11.1204C17.7845 11.0683 17.8252 11.0357 17.8447 11.0227L17.9424 10.9739C18.0465 10.925 18.1377 10.9006 18.2158 10.9006H18.6162C18.6813 10.9006 18.7139 10.9348 18.7139 11.0032V17.8049C18.7139 17.87 18.6813 17.9026 18.6162 17.9026H17.9131C17.848 17.9026 17.8154 17.87 17.8154 17.8049V12.053L16.5557 12.9221C16.4938 12.9612 16.4466 12.9547 16.4141 12.9026L16.1064 12.4924ZM20.4131 17.1018C20.4131 16.9683 20.4798 16.9016 20.6133 16.9016H21.2627C21.3376 16.9016 21.3896 16.9179 21.4189 16.9504C21.4482 16.9797 21.4629 17.0302 21.4629 17.1018V17.7512C21.4629 17.8261 21.4482 17.8782 21.4189 17.9075C21.3896 17.9368 21.3376 17.9514 21.2627 17.9514H20.6133C20.5417 17.9514 20.4896 17.9368 20.457 17.9075C20.4277 17.8782 20.4131 17.8261 20.4131 17.7512V17.1018Z" fill="#4B6CC1"/>
</svg>
