<svg width="26" height="26" viewBox="0 0 26 26" fill="none" xmlns="http://www.w3.org/2000/svg">
<path d="M13.4358 0.0780029C6.53215 0.0780029 0.935791 5.67436 0.935791 12.578C0.935791 19.4816 6.53215 25.078 13.4358 25.078C20.3394 25.078 25.9358 19.4816 25.9358 12.578C25.9358 5.67436 20.3394 0.0780029 13.4358 0.0780029ZM10.3759 17.759H7.84464V9.61316H10.3759V17.759ZM9.09464 8.61316C8.29517 8.61316 7.77824 8.04675 7.77824 7.34623C7.77824 6.63139 8.31079 6.08191 9.1272 6.08191C9.9436 6.08191 10.4436 6.63139 10.4592 7.34623C10.4592 8.04675 9.9436 8.61316 9.09464 8.61316ZM19.6207 17.759H17.0894V13.2447C17.0894 12.1939 16.7222 11.4803 15.8069 11.4803C15.1077 11.4803 14.6923 11.9634 14.5087 12.4283C14.441 12.5936 14.4241 12.828 14.4241 13.0611V17.7577H11.8915V12.2108C11.8915 11.1939 11.859 10.3436 11.8251 9.61186H14.0243L14.1402 10.7434H14.191C14.5243 10.2121 15.3407 9.42826 16.7066 9.42826C18.372 9.42826 19.6207 10.5441 19.6207 12.9426V17.759Z" fill="#191B1E"/>
</svg>
