<svg width="58" height="59" viewBox="0 0 58 59" fill="none" xmlns="http://www.w3.org/2000/svg">
<path d="M39.7853 7.14306L39.7895 7.14508L50.6049 12.3869L53.248 24.2306L53.2491 24.235L55.9454 36.0706L48.4439 45.5484L48.4411 45.552L40.9872 55.0563L29.0022 55.0292L28.9976 55.0292L17.0126 55.0563L9.55869 45.5519L9.55584 45.5484L2.05439 36.0706L4.75073 24.235L4.75172 24.2306L7.39492 12.3869L18.2103 7.14509L18.2144 7.14306L28.9999 1.85565L39.7853 7.14306Z" stroke="#F6F6F6" stroke-width="2.05678"/>
<path d="M22.4865 36.7994C20.7131 36.7994 19.2725 36.2161 18.1649 35.0495C17.0631 33.8829 16.5122 32.2656 16.5122 30.1976C16.5122 28.1295 17.0602 26.5122 18.156 25.3457C19.2578 24.1732 20.6689 23.5869 22.3893 23.5869C23.874 23.5869 25.0789 23.908 26.0039 24.5503C26.929 25.1866 27.5064 26.088 27.7361 27.2546C27.7597 27.4019 27.6978 27.4755 27.5505 27.4755H26.4105C26.3044 27.4755 26.2337 27.4166 26.1984 27.2988C25.6917 25.6726 24.422 24.8566 22.3893 24.8507C21.1697 24.8507 20.1563 25.3015 19.3491 26.2029C18.5419 27.0985 18.1384 28.4271 18.1384 30.1887C18.1384 31.9504 18.5449 33.2819 19.358 34.1834C20.1769 35.0789 21.2198 35.5267 22.4865 35.5267C24.5133 35.5267 25.7801 34.7137 26.2867 33.0875C26.3221 32.9697 26.3928 32.9078 26.4989 32.9019H27.6389C27.7627 32.9019 27.8245 32.9549 27.8245 33.061C27.8245 33.5854 27.6507 34.098 27.3031 34.5988C26.2956 36.0658 24.6901 36.7994 22.4865 36.7994ZM30.5642 36.3486V24.0377C30.5642 23.9139 30.6231 23.8521 30.741 23.8521H35.5399C37.0128 23.8521 38.1352 24.1526 38.907 24.7535C39.6789 25.3486 40.0648 26.197 40.0648 27.2988C40.0648 27.9351 39.8821 28.5037 39.5168 29.0045C39.1574 29.5053 38.6154 29.8411 37.8907 30.012C38.8805 30.1769 39.6111 30.5334 40.0825 31.0813C40.5538 31.6234 40.7895 32.2627 40.7895 32.9991C40.7895 34.1304 40.4065 35.0024 39.6406 35.6151C38.8746 36.222 37.7493 36.5254 36.2646 36.5254H30.741C30.6231 36.5254 30.5642 36.4665 30.5642 36.3486ZM36.2646 35.2616C38.1971 35.2616 39.1633 34.5074 39.1633 32.9991C39.1633 31.4908 38.1971 30.7367 36.2646 30.7367H32.1904V35.2616H36.2646ZM32.1904 29.464H35.7166C36.5533 29.464 37.2161 29.2814 37.7051 28.9161C38.1941 28.5449 38.4386 28.0058 38.4386 27.2988C38.4386 26.5859 38.1853 26.0468 37.6786 25.6815C37.1719 25.3103 36.459 25.1247 35.5399 25.1247H32.1904V29.464Z" fill="#F6F6F6"/>
</svg>
